<?xml version="1.0" standalone="no"?>
<!DOCTYPE svg PUBLIC "-//W3C//DTD SVG 20010904//EN"
 "http://www.w3.org/TR/2001/REC-SVG-20010904/DTD/svg10.dtd">
<svg version="1.0" xmlns="http://www.w3.org/2000/svg"
 width="1668.000000pt" height="1668.000000pt" viewBox="0 0 1668.000000 1668.000000"
 preserveAspectRatio="xMidYMid meet">
<metadata>
Created by potrace 1.14, written by Peter Selinger 2001-2017
</metadata>
<g transform="translate(0.000000,1668.000000) scale(0.100000,-0.100000)"
fill="#000000" stroke="none">
<path d="M8600 12630 c-47 -5 -170 -9 -275 -9 -133 -1 -206 -6 -245 -16 -30
-8 -93 -17 -140 -20 -47 -4 -107 -12 -135 -20 -27 -7 -104 -25 -170 -40 -66
-15 -167 -42 -225 -59 -58 -18 -139 -41 -180 -51 -66 -16 -157 -56 -224 -100
-13 -9 -65 -25 -117 -38 -91 -21 -111 -22 -549 -21 -333 1 -466 4 -495 13 -57
18 -516 25 -765 13 -220 -12 -430 -34 -548 -57 -40 -8 -88 -15 -106 -15 -18 0
-81 -18 -140 -40 -58 -22 -122 -40 -140 -40 -19 0 -41 -7 -50 -15 -22 -22 -80
-45 -114 -45 -16 0 -46 -11 -66 -25 -21 -14 -108 -60 -194 -102 -86 -42 -173
-89 -192 -104 -19 -14 -56 -37 -82 -49 -27 -12 -48 -26 -48 -30 0 -12 -83 -50
-108 -50 -12 0 -43 -13 -70 -30 -129 -79 -201 -96 -464 -110 -133 -7 -229 -17
-278 -29 -41 -11 -127 -26 -190 -35 -63 -9 -151 -26 -195 -37 -107 -28 -278
-81 -290 -90 -6 -4 -37 -17 -70 -29 -205 -75 -392 -167 -431 -213 -30 -35
-143 -117 -162 -117 -7 0 -56 -42 -109 -92 -52 -51 -138 -134 -189 -184 -96
-93 -164 -177 -164 -204 -1 -14 -35 -56 -109 -135 -16 -16 -43 -59 -62 -94
-18 -35 -39 -65 -46 -68 -7 -3 -13 -11 -13 -18 0 -7 -13 -36 -29 -66 -15 -30
-32 -68 -35 -86 -4 -18 -15 -42 -25 -55 -10 -13 -23 -40 -30 -60 -7 -20 -19
-42 -27 -48 -8 -7 -14 -30 -14 -51 0 -21 -6 -56 -14 -76 -8 -21 -17 -56 -20
-78 -13 -87 -23 -131 -38 -165 -9 -19 -19 -53 -22 -75 -3 -21 -14 -51 -24 -65
-11 -15 -22 -50 -25 -85 -3 -33 -10 -80 -16 -105 -5 -25 -15 -76 -21 -115 -11
-68 -21 -125 -40 -230 -16 -85 -22 -541 -9 -625 6 -41 13 -111 15 -155 2 -44
8 -102 14 -130 6 -27 15 -93 20 -145 6 -52 14 -117 19 -145 5 -27 13 -70 16
-95 4 -25 13 -63 20 -85 8 -22 16 -67 20 -100 4 -39 14 -72 30 -95 13 -19 27
-48 30 -65 13 -59 76 -217 100 -253 14 -20 25 -40 25 -45 0 -4 20 -38 45 -76
25 -38 45 -71 45 -75 0 -9 119 -218 135 -236 7 -8 22 -34 34 -57 12 -23 29
-47 39 -52 9 -5 39 -48 66 -96 27 -47 66 -105 87 -128 21 -23 39 -46 39 -51 0
-4 12 -23 27 -41 16 -18 37 -45 48 -61 20 -28 36 -45 71 -75 10 -9 38 -39 61
-65 22 -27 56 -67 75 -88 18 -22 44 -49 57 -60 13 -12 31 -30 40 -40 27 -33
84 -88 145 -141 67 -58 101 -87 136 -119 14 -13 35 -26 48 -30 12 -4 30 -16
40 -26 9 -10 58 -39 107 -65 50 -26 97 -53 105 -59 8 -7 38 -21 65 -30 28 -10
86 -35 130 -56 44 -21 141 -57 215 -81 178 -56 227 -79 275 -126 22 -21 58
-52 80 -68 22 -16 45 -34 50 -41 6 -6 28 -24 50 -40 22 -16 44 -32 50 -37 74
-56 118 -85 182 -117 42 -22 88 -49 101 -61 14 -11 35 -22 48 -24 13 -1 36
-11 51 -21 15 -10 48 -26 73 -35 195 -72 277 -99 304 -99 17 0 45 -9 62 -19
38 -23 181 -67 249 -77 28 -3 62 -13 77 -20 15 -8 41 -14 58 -14 17 0 43 -6
58 -14 15 -7 53 -17 86 -21 80 -9 100 -13 183 -36 78 -20 209 -43 343 -58 47
-6 137 -17 200 -25 135 -18 364 -44 435 -50 28 -2 100 -9 160 -15 366 -36 526
-48 810 -57 110 -4 203 -8 207 -10 4 -3 89 -7 190 -9 101 -3 203 -10 228 -15
25 -5 52 -8 60 -8 8 0 98 -4 200 -8 329 -16 1631 -10 2100 9 551 22 1128 65
1405 104 61 9 139 18 175 20 130 6 264 28 323 52 15 6 58 10 95 10 61 -1 174
16 277 42 22 5 54 12 70 13 17 2 30 5 30 6 0 2 13 5 95 20 36 6 97 20 135 30
39 10 77 18 85 18 29 1 125 20 153 31 16 6 43 11 61 11 19 0 50 7 69 15 20 8
48 15 62 15 14 0 25 5 25 10 0 6 13 10 29 10 16 0 46 7 67 17 60 25 286 103
311 107 13 2 29 9 38 16 8 7 15 9 15 5 0 -4 6 -3 13 3 7 6 54 25 106 42 51 17
127 46 167 65 41 19 78 35 82 35 4 0 30 12 57 25 28 14 55 25 61 25 6 0 17 7
24 15 7 8 30 20 51 26 21 7 46 20 55 31 10 10 24 18 33 18 9 0 45 20 81 45 36
25 71 45 78 45 6 0 12 4 12 9 0 5 11 11 23 15 21 5 57 29 124 83 32 26 48 22
51 -10 l4 -29 71 7 c127 11 277 45 350 79 28 14 84 35 122 48 39 12 102 39
140 59 39 20 84 39 102 43 17 4 37 14 43 21 6 8 28 19 48 26 19 6 61 27 93 45
32 19 62 34 67 34 6 0 17 6 24 13 16 15 154 107 161 107 9 0 112 72 130 91 10
11 35 31 55 45 118 80 151 105 211 161 25 24 52 45 60 48 9 3 25 18 36 34 10
17 36 39 57 51 21 12 38 25 38 29 0 4 11 14 24 21 14 7 37 32 51 55 15 23 39
49 55 58 15 9 43 37 61 61 19 25 44 50 57 57 13 7 29 27 37 44 7 16 27 45 44
63 17 18 31 37 31 41 0 4 9 16 19 28 10 11 27 35 36 54 10 18 28 42 41 52 13
10 36 40 51 67 15 28 32 50 36 50 4 0 16 19 26 43 10 24 26 50 35 59 8 9 43
72 77 140 33 67 68 137 76 153 9 17 34 66 56 110 22 44 43 82 46 85 12 11 64
168 71 217 5 28 15 64 24 80 8 15 20 53 26 84 6 31 17 65 25 75 8 11 15 36 15
56 0 21 9 60 20 88 11 28 20 73 20 101 0 27 7 66 16 87 9 20 20 73 24 117 4
44 13 109 19 145 8 44 10 200 8 490 -4 466 -6 491 -67 615 -37 75 -70 172 -70
204 0 14 -13 61 -29 105 -16 45 -35 108 -44 141 -8 33 -37 123 -64 200 -27 77
-50 156 -52 175 -1 19 -14 58 -27 86 -13 28 -24 58 -24 67 0 9 -4 18 -9 22
-17 10 -71 112 -71 132 0 11 -16 37 -35 59 -19 21 -40 55 -46 74 -7 19 -22 46
-35 58 -13 13 -28 39 -34 58 -6 19 -15 34 -19 34 -4 0 -15 15 -26 33 -22 37
-37 56 -123 146 -35 36 -71 76 -79 89 -9 13 -30 29 -47 36 -18 7 -47 30 -66
50 -19 20 -40 36 -46 36 -6 0 -31 15 -55 33 -24 18 -63 44 -86 57 -24 13 -43
27 -43 30 0 4 -18 12 -39 19 -22 6 -50 22 -63 36 -12 14 -28 25 -34 25 -5 0
-33 11 -60 25 -43 21 -149 62 -269 104 -16 5 -64 17 -105 26 -41 9 -84 22 -95
30 -12 7 -43 15 -70 18 -48 4 -134 21 -276 52 -37 8 -83 15 -103 15 -20 0 -53
7 -73 15 -19 8 -50 15 -68 15 -19 0 -61 7 -94 15 -33 9 -91 17 -128 19 -37 2
-121 12 -185 24 -127 22 -183 47 -253 112 -22 21 -60 50 -85 65 -25 16 -47 31
-50 35 -7 11 -134 70 -150 70 -7 0 -38 12 -69 27 -31 14 -94 37 -141 50 -146
42 -273 52 -674 53 -206 0 -376 5 -386 10 -9 5 -57 14 -106 20 -51 6 -110 21
-139 34 -30 14 -80 26 -125 30 -41 4 -95 13 -120 20 -117 36 -159 47 -208 56
-29 5 -61 14 -72 20 -10 5 -29 10 -41 10 -13 0 -41 9 -63 19 -23 10 -99 28
-171 40 -71 12 -179 35 -240 51 -145 40 -347 80 -406 80 -54 0 -178 23 -264
50 -40 12 -106 20 -195 24 -75 3 -169 12 -210 20 -41 8 -113 20 -160 26 -103
13 -772 21 -890 10z"/>
</g>
</svg>
